<svg id="visual" viewBox="0 0 900 600" width="900" height="600" xmlns="http://www.w3.org/2000/svg" xmlns:xlink="http://www.w3.org/1999/xlink" version="1.1"><rect width="900" height="600" fill="#001829"></rect><g><g transform="translate(733 291)"><path d="M0 -147L139.8 -45.4L86.4 118.9L-86.4 118.9L-139.8 -45.4Z" fill="#3ea6d6"></path></g><g transform="translate(388 588)"><path d="M0 -112L106.5 -34.6L65.8 90.6L-65.8 90.6L-106.5 -34.6Z" fill="#3ea6d6"></path></g><g transform="translate(132 414)"><path d="M0 -106L100.8 -32.8L62.3 85.8L-62.3 85.8L-100.8 -32.8Z" fill="#3ea6d6"></path></g><g transform="translate(59 69)"><path d="M0 -89L84.6 -27.5L52.3 72L-52.3 72L-84.6 -27.5Z" fill="#3ea6d6"></path></g><g transform="translate(888 18)"><path d="M0 -99L94.2 -30.6L58.2 80.1L-58.2 80.1L-94.2 -30.6Z" fill="#3ea6d6"></path></g></g></svg>