<svg width="100" height="100" viewBox="0 0 100 100" fill="none" xmlns="http://www.w3.org/2000/svg">
<g clip-path="url(#clip0_175_59)">
<path d="M96.5 52.2895C96.5 76.4897 76.0351 92 50 92C24.6817 92 3.5 76.4767 3.5 52.2895C3.5 41.6937 8.65903 30.6113 17.1192 22.1564C25.5675 13.7133 37.2001 8 50 8C62.7248 8 74.3559 14.6529 82.8514 23.6351C91.3739 32.6459 96.5 43.743 96.5 52.2895Z" fill="#46B3E6" stroke="#277A9D" stroke-width="3"/>
<ellipse cx="51.2631" cy="79" rx="26.5263" ry="3.45238" fill="#ACE5FF" fill-opacity="0.55"/>
<path fill-rule="evenodd" clip-rule="evenodd" d="M64.0476 23.33C64.0739 23.3388 64.0989 23.3493 64.1235 23.362C68.8927 25.8152 75.6957 31.0355 80.3876 38.4951C85.1005 45.9879 87.682 55.7324 83.9297 67.2303C83.5028 68.2942 83.0241 69.3772 82.4905 70.4791C82.4641 70.5338 82.4868 70.5996 82.5414 70.6262V70.6262C82.5941 70.6518 82.6174 70.7142 82.5943 70.768C82.5757 70.8115 82.557 70.8551 82.5382 70.8986C82.4813 71.0302 82.5409 71.1832 82.6722 71.2408L82.8924 71.3375C83.1452 71.4485 83.4405 71.3335 83.5487 71.0795C84.0542 69.8931 84.4936 68.7231 84.871 67.5697C90.0179 54.714 87.7871 44.4679 82.8906 36.9372C77.8379 29.1663 69.9732 24.3241 64.5853 22.4569C64.5121 22.4315 64.4422 22.4019 64.373 22.367C64.0208 22.1894 63.6794 22.0266 63.3505 21.8787C63.0987 21.7654 62.8052 21.885 62.6978 22.1394V22.1394C62.5904 22.3938 62.7098 22.6867 62.9616 22.8002C63.1378 22.8796 63.3178 22.9636 63.5014 23.052C63.5233 23.0626 63.5342 23.0876 63.5271 23.1109V23.1109C63.5191 23.137 63.5338 23.1646 63.5598 23.1726C63.7197 23.2221 63.8823 23.2745 64.0476 23.33ZM71.3675 26.9683C74.8336 29.7676 78.4073 33.4684 81.2341 37.9626C84.3741 42.9548 86.5932 48.9292 86.7208 55.728C87.2612 48.4451 85.2259 42.3633 82.0522 37.4823C79.1063 32.9514 75.1698 29.4417 71.3675 26.9683Z" fill="white"/>
<path d="M80.3876 38.4951L79.5411 39.0275L79.5411 39.0275L80.3876 38.4951ZM83.9297 67.2303L84.8578 67.6027L84.8701 67.572L84.8804 67.5406L83.9297 67.2303ZM84.871 67.5697L83.9426 67.198L83.9306 67.228L83.9205 67.2587L84.871 67.5697ZM82.8906 36.9372L82.0522 37.4823L82.0522 37.4823L82.8906 36.9372ZM71.3675 26.9683L71.9128 26.1301L70.7392 27.7463L71.3675 26.9683ZM81.2341 37.9626L80.3876 38.4951L80.3876 38.4951L81.2341 37.9626ZM86.7208 55.728L85.721 55.7468L87.7181 55.802L86.7208 55.728ZM82.0522 37.4823L81.2139 38.0274L82.0522 37.4823ZM63.5598 23.1726L63.8553 22.2173L63.5598 23.1726ZM62.9616 22.8002L62.5505 23.7118L62.9616 22.8002ZM82.5382 70.8986L83.4561 71.2953L82.5382 70.8986ZM82.6722 71.2408L83.0741 70.3251L82.6722 71.2408ZM82.5943 70.768L81.6751 70.3743L82.5943 70.768ZM82.4905 70.4791L83.3906 70.9149L82.4905 70.4791ZM82.8924 71.3375L82.4905 72.2532L82.8924 71.3375ZM83.5487 71.0795L84.4687 71.4714L83.5487 71.0795ZM63.5014 23.052L63.9354 22.1511L63.5014 23.052ZM64.1235 23.362L64.5809 22.4728L64.1235 23.362ZM64.0476 23.33L63.7294 24.278L64.0476 23.33ZM81.2341 37.9626C76.4331 30.3297 69.485 24.9953 64.5809 22.4728L63.6661 24.2513C68.3005 26.6351 74.9582 31.7413 79.5411 39.0275L81.2341 37.9626ZM84.8804 67.5406C88.7401 55.7133 86.0768 45.6619 81.2341 37.9626L79.5411 39.0275C84.1241 46.3138 86.6238 55.7515 82.9791 66.9201L84.8804 67.5406ZM83.3906 70.9149C83.9339 69.7929 84.422 68.6888 84.8578 67.6027L83.0016 66.858C82.5837 67.8997 82.1143 68.9615 81.5905 70.0434L83.3906 70.9149ZM83.4561 71.2953C83.4754 71.2508 83.4945 71.2063 83.5136 71.1618L81.6751 70.3743C81.6569 70.4168 81.6386 70.4594 81.6202 70.502L83.4561 71.2953ZM83.2943 70.4218L83.0741 70.3251L82.2703 72.1565L82.4905 72.2532L83.2943 70.4218ZM83.9205 67.2587C83.5523 68.384 83.1232 69.5271 82.6287 70.6875L84.4687 71.4714C84.9852 70.2592 85.4348 69.0621 85.8214 67.8807L83.9205 67.2587ZM82.0522 37.4823C86.7753 44.7463 88.9659 54.651 83.9426 67.198L85.7993 67.9414C91.0699 54.777 88.7989 44.1894 83.729 36.3921L82.0522 37.4823ZM64.2578 23.4018C69.4745 25.2096 77.1413 29.9294 82.0522 37.4823L83.729 36.3921C78.5346 28.4032 70.472 23.4386 64.9127 21.512L64.2578 23.4018ZM62.9404 22.7907C63.255 22.9322 63.583 23.0886 63.9228 23.2599L64.8233 21.4741C64.4586 21.2902 64.1039 21.121 63.7607 20.9666L62.9404 22.7907ZM63.9354 22.1511C63.7445 22.0591 63.5568 21.9716 63.3726 21.8886L62.5505 23.7118C62.7187 23.7876 62.8911 23.868 63.0674 23.9529L63.9354 22.1511ZM64.3658 22.382C64.1932 22.3241 64.023 22.2692 63.8553 22.2173L63.2643 24.128C63.4163 24.175 63.5714 24.225 63.7294 24.278L64.3658 22.382ZM70.7392 27.7463C74.1353 30.4891 77.6294 34.1099 80.3876 38.4951L82.0806 37.4302C79.1851 32.8269 75.5319 29.0462 71.9958 26.1903L70.7392 27.7463ZM80.3876 38.4951C83.4489 43.3622 85.5973 49.1614 85.721 55.7468L87.7206 55.7092C87.589 48.697 85.2992 42.5474 82.0806 37.4302L80.3876 38.4951ZM87.7181 55.802C88.2764 48.2768 86.1696 41.9802 82.8906 36.9372L81.2139 38.0274C84.2822 42.7464 86.2459 48.6134 85.7235 55.654L87.7181 55.802ZM82.8906 36.9372C79.8537 32.2665 75.807 28.6633 71.9128 26.1301L70.8222 27.8066C74.5325 30.2201 78.3588 33.6364 81.2139 38.0274L82.8906 36.9372ZM62.571 22.8177C62.401 23.3723 62.713 23.9574 63.2643 24.128L63.8553 22.2173C64.3545 22.3717 64.6372 22.9016 64.4832 23.4041L62.571 22.8177ZM61.7765 21.7505C61.4522 22.519 61.8178 23.3814 62.5505 23.7118L63.3726 21.8886C63.6019 21.9919 63.7287 22.2687 63.6191 22.5283L61.7765 21.7505ZM63.7607 20.9666C62.9832 20.617 62.0964 20.9929 61.7765 21.7505L63.6191 22.5283C63.5141 22.7772 63.2142 22.9138 62.9404 22.7907L63.7607 20.9666ZM64.9127 21.512C64.8822 21.5015 64.8533 21.4892 64.8233 21.4741L63.9228 23.2599C64.0311 23.3145 64.142 23.3616 64.2578 23.4018L64.9127 21.512ZM81.6202 70.502C81.3466 71.135 81.6319 71.8763 82.2703 72.1565L83.0741 70.3251C83.4499 70.4901 83.616 70.9253 83.4561 71.2953L81.6202 70.502ZM82.1038 71.5253C81.6781 71.3182 81.4875 70.8123 81.6751 70.3743L83.5136 71.1618C83.7473 70.6161 83.51 69.9854 82.979 69.727L82.1038 71.5253ZM81.5905 70.0434C81.3243 70.5931 81.5521 71.2568 82.1038 71.5253L82.979 69.727C83.4215 69.9423 83.6039 70.4744 83.3906 70.9149L81.5905 70.0434ZM82.4905 72.2532C83.2465 72.585 84.1396 72.2439 84.4687 71.4714L82.6287 70.6875C82.7414 70.4231 83.044 70.3119 83.2943 70.4218L82.4905 72.2532ZM63.0674 23.9529C62.6434 23.7487 62.4336 23.2659 62.571 22.8177L64.4832 23.4041C64.6349 22.9093 64.4032 22.3765 63.9354 22.1511L63.0674 23.9529ZM64.5809 22.4728C64.5105 22.4366 64.4389 22.4065 64.3658 22.382L63.7294 24.278C63.7088 24.2711 63.6872 24.2621 63.6661 24.2513L64.5809 22.4728Z" fill="white"/>
<path d="M31.2989 76.577L37.6601 64.3225M70.7275 75.9539L62.7275 64.3225M62.7275 64.3225L48.4417 43.5521L37.6601 64.3225M62.7275 64.3225H37.6601M26.7274 32.0476L37.6599 39.8134L26.7273 46.0445M74.7275 25.4818L61.6364 38.3749L74.7275 46.0445" stroke="#277A9D" stroke-width="3" stroke-linejoin="round"/>
</g>
<defs>
<clipPath id="clip0_175_59">
<rect width="100" height="100" fill="white"/>
</clipPath>
</defs>
</svg>
